<svg width="21" height="21" viewBox="0 0 21 21" fill="none" xmlns="http://www.w3.org/2000/svg">
<g id="bell">
<path id="Vector" d="M8.59851 18.1932C8.738 18.4469 8.94305 18.6585 9.19225 18.8059C9.44146 18.9532 9.72566 19.031 10.0152 19.031C10.3047 19.031 10.5889 18.9532 10.8381 18.8059C11.0873 18.6585 11.2924 18.4469 11.4318 18.1932M5.01514 7.35986C5.01514 6.03378 5.54192 4.76201 6.4796 3.82433C7.41728 2.88665 8.68905 2.35986 10.0151 2.35986C11.3412 2.35986 12.613 2.88665 13.5507 3.82433C14.4884 4.76201 15.0151 6.03378 15.0151 7.35986C15.0151 13.1932 17.5151 14.8599 17.5151 14.8599H2.51514C2.51514 14.8599 5.01514 13.1932 5.01514 7.35986Z" stroke="#FAFAFA" stroke-width="1.67" stroke-linecap="round" stroke-linejoin="round"/>
</g>
</svg>
