<svg width="26" height="25" viewBox="0 0 26 25" fill="none" xmlns="http://www.w3.org/2000/svg">
<g id="clipboard">
<path id="Vector" d="M17.0265 4.41767H19.0321C19.564 4.41767 20.0741 4.62896 20.4502 5.00508C20.8263 5.38119 21.0376 5.89131 21.0376 6.42322V20.4621C21.0376 20.994 20.8263 21.5041 20.4502 21.8803C20.0741 22.2564 19.564 22.4677 19.0321 22.4677H6.99872C6.46681 22.4677 5.95669 22.2564 5.58058 21.8803C5.20446 21.5041 4.99316 20.994 4.99316 20.4621V6.42322C4.99316 5.89131 5.20446 5.38119 5.58058 5.00508C5.95669 4.62896 6.46681 4.41767 6.99872 4.41767H9.00428M10.0071 2.41211H16.0237C16.5775 2.41211 17.0265 2.86107 17.0265 3.41489V5.42044C17.0265 5.97426 16.5775 6.42322 16.0237 6.42322H10.0071C9.45323 6.42322 9.00428 5.97426 9.00428 5.42044V3.41489C9.00428 2.86107 9.45323 2.41211 10.0071 2.41211Z" stroke="#FAFAFA" stroke-width="2.00957" stroke-linecap="round" stroke-linejoin="round"/>
</g>
</svg>
