<svg width="21" height="21" viewBox="0 0 21 21" fill="none" xmlns="http://www.w3.org/2000/svg">
<g id="folder-closed" clip-path="url(#clip0_1912_298)">
<path id="Vector" d="M1.68164 8.65316H18.3483M3.34831 16.9865H16.6816C17.1237 16.9865 17.5476 16.8109 17.8602 16.4983C18.1727 16.1858 18.3483 15.7619 18.3483 15.3198V6.98649C18.3483 6.54446 18.1727 6.12054 17.8602 5.80798C17.5476 5.49542 17.1237 5.31982 16.6816 5.31982H10.0733C9.7988 5.3184 9.52888 5.2492 9.28756 5.11836C9.04623 4.98752 8.84095 4.79909 8.68997 4.56982L8.00664 3.56982C7.85566 3.34056 7.65039 3.15213 7.40906 3.02129C7.16773 2.89045 6.89782 2.82124 6.62331 2.81982H3.34831C2.90628 2.81982 2.48236 2.99542 2.1698 3.30798C1.85724 3.62054 1.68164 4.04446 1.68164 4.48649V15.3198C1.68164 16.2365 2.43164 16.9865 3.34831 16.9865Z" stroke="#FAFAFA" stroke-width="1.67" stroke-linecap="round" stroke-linejoin="round"/>
</g>
<defs>
<clipPath id="clip0_1912_298">
<rect width="20" height="20" fill="white" transform="translate(0.0151367 0.319824)"/>
</clipPath>
</defs>
</svg>
