<svg width="24" height="28" viewBox="0 0 24 28" fill="none" xmlns="http://www.w3.org/2000/svg">
<g id="icon/Resize/search">
<path id="Vector" d="M20.3778 22.6405L14.6174 16.8801M16.5376 12.0798C16.5376 12.9624 16.3637 13.8362 16.026 14.6516C15.6883 15.467 15.1932 16.2078 14.5692 16.8319C13.9451 17.4559 13.2043 17.951 12.3889 18.2887C11.5736 18.6264 10.6997 18.8002 9.81712 18.8002C8.93458 18.8002 8.06068 18.6264 7.24532 18.2887C6.42996 17.951 5.6891 17.4559 5.06505 16.8319C4.441 16.2078 3.94598 15.467 3.60824 14.6516C3.27051 13.8362 3.09668 12.9624 3.09668 12.0798C3.09668 10.2974 3.80472 8.58807 5.06505 7.32774C6.32538 6.06742 8.03475 5.35938 9.81712 5.35938C11.5995 5.35937 13.3089 6.06742 14.5692 7.32774C15.8295 8.58807 16.5376 10.2974 16.5376 12.0798Z" stroke="#434343" stroke-width="1.92012" stroke-linecap="round" stroke-linejoin="round"/>
</g>
</svg>
