<svg width="21" height="21" viewBox="0 0 21 21" fill="none" xmlns="http://www.w3.org/2000/svg">
<g id="settings">
<g id="Vector">
<path d="M10.3918 2.2334H10.0252C9.58314 2.2334 9.15921 2.40899 8.84665 2.72155C8.53409 3.03411 8.3585 3.45804 8.3585 3.90007V4.05007C8.3582 4.34234 8.28105 4.62939 8.13478 4.88243C7.98851 5.13547 7.77828 5.3456 7.52516 5.49173L7.16683 5.70007C6.91347 5.84635 6.62606 5.92336 6.3335 5.92336C6.04094 5.92336 5.75353 5.84635 5.50016 5.70007L5.37516 5.6334C4.99272 5.41278 4.53836 5.35294 4.11183 5.46699C3.6853 5.58104 3.32146 5.85968 3.10016 6.24173L2.91683 6.5584C2.69622 6.94084 2.63637 7.3952 2.75042 7.82173C2.86447 8.24826 3.14311 8.61211 3.52516 8.8334L3.65016 8.91673C3.90206 9.06216 4.11151 9.27097 4.25771 9.52242C4.4039 9.77388 4.48174 10.0592 4.4835 10.3501V10.7751C4.48466 11.0687 4.40821 11.3575 4.26187 11.6122C4.11553 11.8668 3.90451 12.0782 3.65016 12.2251L3.52516 12.3001C3.14311 12.5214 2.86447 12.8852 2.75042 13.3117C2.63637 13.7383 2.69622 14.1926 2.91683 14.5751L3.10016 14.8917C3.32146 15.2738 3.6853 15.5524 4.11183 15.6665C4.53836 15.7805 4.99272 15.7207 5.37516 15.5001L5.50016 15.4334C5.75353 15.2871 6.04094 15.2101 6.3335 15.2101C6.62606 15.2101 6.91347 15.2871 7.16683 15.4334L7.52516 15.6417C7.77828 15.7879 7.98851 15.998 8.13478 16.251C8.28105 16.5041 8.3582 16.7911 8.3585 17.0834V17.2334C8.3585 17.6754 8.53409 18.0993 8.84665 18.4119C9.15921 18.7245 9.58314 18.9001 10.0252 18.9001H10.3918C10.8339 18.9001 11.2578 18.7245 11.5703 18.4119C11.8829 18.0993 12.0585 17.6754 12.0585 17.2334V17.0834C12.0588 16.7911 12.136 16.5041 12.2822 16.251C12.4285 15.998 12.6387 15.7879 12.8918 15.6417L13.2502 15.4334C13.5035 15.2871 13.7909 15.2101 14.0835 15.2101C14.3761 15.2101 14.6635 15.2871 14.9168 15.4334L15.0418 15.5001C15.4243 15.7207 15.8786 15.7805 16.3052 15.6665C16.7317 15.5524 17.0955 15.2738 17.3168 14.8917L17.5002 14.5667C17.7208 14.1843 17.7806 13.7299 17.6666 13.3034C17.5525 12.8769 17.2739 12.513 16.8918 12.2917L16.7668 12.2251C16.5125 12.0782 16.3015 11.8668 16.1551 11.6122C16.0088 11.3575 15.9323 11.0687 15.9335 10.7751V10.3584C15.9323 10.0647 16.0088 9.77594 16.1551 9.52131C16.3015 9.26668 16.5125 9.05524 16.7668 8.9084L16.8918 8.8334C17.2739 8.61211 17.5525 8.24826 17.6666 7.82173C17.7806 7.3952 17.7208 6.94084 17.5002 6.5584L17.3168 6.24173C17.0955 5.85968 16.7317 5.58104 16.3052 5.46699C15.8786 5.35294 15.4243 5.41278 15.0418 5.6334L14.9168 5.70007C14.6635 5.84635 14.3761 5.92336 14.0835 5.92336C13.7909 5.92336 13.5035 5.84635 13.2502 5.70007L12.8918 5.49173C12.6387 5.3456 12.4285 5.13547 12.2822 4.88243C12.136 4.62939 12.0588 4.34234 12.0585 4.05007V3.90007C12.0585 3.45804 11.8829 3.03411 11.5703 2.72155C11.2578 2.40899 10.8339 2.2334 10.3918 2.2334Z" stroke="#FAFAFA" stroke-width="1.67" stroke-linecap="round" stroke-linejoin="round"/>
<path d="M10.2085 13.0667C11.5892 13.0667 12.7085 11.9474 12.7085 10.5667C12.7085 9.18602 11.5892 8.06673 10.2085 8.06673C8.82778 8.06673 7.7085 9.18602 7.7085 10.5667C7.7085 11.9474 8.82778 13.0667 10.2085 13.0667Z" stroke="#FAFAFA" stroke-width="1.67" stroke-linecap="round" stroke-linejoin="round"/>
</g>
</g>
</svg>
